<mxfile host="app.diagrams.net" modified="2023-03-17T11:17:44.712Z" agent="5.0 (Windows NT 10.0; Win64; x64) AppleWebKit/537.36 (KHTML, like Gecko) Chrome/111.0.0.0 Safari/537.36 Edg/111.0.1661.41" etag="TjZle2nyssC8VywL9EB9" version="20.8.20" type="github">
  <diagram name="第 1 页" id="1Hu0rR5MAEPpTLeVat40">
    <mxGraphModel dx="374" dy="198" grid="0" gridSize="10" guides="1" tooltips="1" connect="1" arrows="1" fold="1" page="1" pageScale="1" pageWidth="827" pageHeight="1169" math="0" shadow="0">
      <root>
        <mxCell id="0" />
        <mxCell id="1" parent="0" />
        <mxCell id="Ugb7wUQW9oK9LGEoKZRi-2" value="INIT" style="ellipse;whiteSpace=wrap;html=1;aspect=fixed;" vertex="1" parent="1">
          <mxGeometry x="139" y="193" width="62" height="62" as="geometry" />
        </mxCell>
        <mxCell id="Ugb7wUQW9oK9LGEoKZRi-3" value="1" style="ellipse;whiteSpace=wrap;html=1;aspect=fixed;" vertex="1" parent="1">
          <mxGeometry x="254" y="193" width="62" height="62" as="geometry" />
        </mxCell>
        <mxCell id="Ugb7wUQW9oK9LGEoKZRi-4" value="" style="endArrow=classic;html=1;rounded=0;" edge="1" parent="1">
          <mxGeometry width="50" height="50" relative="1" as="geometry">
            <mxPoint x="71" y="224" as="sourcePoint" />
            <mxPoint x="139" y="224" as="targetPoint" />
          </mxGeometry>
        </mxCell>
        <mxCell id="Ugb7wUQW9oK9LGEoKZRi-5" value="" style="endArrow=classic;html=1;rounded=0;entryX=0;entryY=0.5;entryDx=0;entryDy=0;" edge="1" parent="1" target="Ugb7wUQW9oK9LGEoKZRi-3">
          <mxGeometry width="50" height="50" relative="1" as="geometry">
            <mxPoint x="201" y="223.76" as="sourcePoint" />
            <mxPoint x="269" y="223.76" as="targetPoint" />
          </mxGeometry>
        </mxCell>
        <mxCell id="Ugb7wUQW9oK9LGEoKZRi-6" value="&#39;" style="text;html=1;align=center;verticalAlign=middle;resizable=0;points=[];autosize=1;strokeColor=none;fillColor=none;" vertex="1" parent="1">
          <mxGeometry x="216" y="201" width="20" height="26" as="geometry" />
        </mxCell>
        <mxCell id="Ugb7wUQW9oK9LGEoKZRi-7" value="" style="curved=1;endArrow=classic;html=1;rounded=0;entryX=0.446;entryY=0.022;entryDx=0;entryDy=0;entryPerimeter=0;" edge="1" parent="1" target="Ugb7wUQW9oK9LGEoKZRi-3">
          <mxGeometry width="50" height="50" relative="1" as="geometry">
            <mxPoint x="316" y="225" as="sourcePoint" />
            <mxPoint x="366" y="175" as="targetPoint" />
            <Array as="points">
              <mxPoint x="342" y="212" />
              <mxPoint x="342" y="184" />
              <mxPoint x="321" y="165" />
              <mxPoint x="288" y="167" />
            </Array>
          </mxGeometry>
        </mxCell>
        <mxCell id="Ugb7wUQW9oK9LGEoKZRi-8" value="!(&#39;|\)" style="edgeLabel;html=1;align=center;verticalAlign=middle;resizable=0;points=[];" vertex="1" connectable="0" parent="Ugb7wUQW9oK9LGEoKZRi-7">
          <mxGeometry x="0.3226" y="-2" relative="1" as="geometry">
            <mxPoint x="7" y="-9" as="offset" />
          </mxGeometry>
        </mxCell>
        <mxCell id="Ugb7wUQW9oK9LGEoKZRi-10" value="2" style="ellipse;whiteSpace=wrap;html=1;aspect=fixed;" vertex="1" parent="1">
          <mxGeometry x="254" y="306" width="62" height="62" as="geometry" />
        </mxCell>
        <mxCell id="Ugb7wUQW9oK9LGEoKZRi-11" value="" style="endArrow=classic;html=1;rounded=0;exitX=0.6;exitY=1.031;exitDx=0;exitDy=0;exitPerimeter=0;entryX=0.607;entryY=0.038;entryDx=0;entryDy=0;entryPerimeter=0;" edge="1" parent="1" target="Ugb7wUQW9oK9LGEoKZRi-10" source="Ugb7wUQW9oK9LGEoKZRi-3">
          <mxGeometry width="50" height="50" relative="1" as="geometry">
            <mxPoint x="201" y="336.76" as="sourcePoint" />
            <mxPoint x="269" y="336.76" as="targetPoint" />
          </mxGeometry>
        </mxCell>
        <mxCell id="Ugb7wUQW9oK9LGEoKZRi-15" value="\" style="edgeLabel;html=1;align=center;verticalAlign=middle;resizable=0;points=[];" vertex="1" connectable="0" parent="Ugb7wUQW9oK9LGEoKZRi-11">
          <mxGeometry x="-0.4192" relative="1" as="geometry">
            <mxPoint x="4" y="6" as="offset" />
          </mxGeometry>
        </mxCell>
        <mxCell id="Ugb7wUQW9oK9LGEoKZRi-16" value="1" style="ellipse;whiteSpace=wrap;html=1;aspect=fixed;" vertex="1" parent="1">
          <mxGeometry x="369" y="306" width="62" height="62" as="geometry" />
        </mxCell>
        <mxCell id="Ugb7wUQW9oK9LGEoKZRi-17" value="" style="endArrow=classic;html=1;rounded=0;entryX=0;entryY=0.5;entryDx=0;entryDy=0;" edge="1" parent="1" target="Ugb7wUQW9oK9LGEoKZRi-16">
          <mxGeometry width="50" height="50" relative="1" as="geometry">
            <mxPoint x="316" y="336.76" as="sourcePoint" />
            <mxPoint x="384" y="336.76" as="targetPoint" />
          </mxGeometry>
        </mxCell>
        <mxCell id="Ugb7wUQW9oK9LGEoKZRi-18" value="x" style="text;html=1;align=center;verticalAlign=middle;resizable=0;points=[];autosize=1;strokeColor=none;fillColor=none;" vertex="1" parent="1">
          <mxGeometry x="329" y="314" width="24" height="26" as="geometry" />
        </mxCell>
        <mxCell id="Ugb7wUQW9oK9LGEoKZRi-19" value="" style="curved=1;endArrow=classic;html=1;rounded=0;entryX=0.446;entryY=0.022;entryDx=0;entryDy=0;entryPerimeter=0;" edge="1" parent="1" target="Ugb7wUQW9oK9LGEoKZRi-16">
          <mxGeometry width="50" height="50" relative="1" as="geometry">
            <mxPoint x="431" y="338" as="sourcePoint" />
            <mxPoint x="481" y="288" as="targetPoint" />
            <Array as="points">
              <mxPoint x="457" y="325" />
              <mxPoint x="457" y="297" />
              <mxPoint x="436" y="278" />
              <mxPoint x="403" y="280" />
            </Array>
          </mxGeometry>
        </mxCell>
        <mxCell id="Ugb7wUQW9oK9LGEoKZRi-20" value="!(&#39;|\)" style="edgeLabel;html=1;align=center;verticalAlign=middle;resizable=0;points=[];" vertex="1" connectable="0" parent="Ugb7wUQW9oK9LGEoKZRi-19">
          <mxGeometry x="0.3226" y="-2" relative="1" as="geometry">
            <mxPoint x="7" y="-9" as="offset" />
          </mxGeometry>
        </mxCell>
        <mxCell id="Ugb7wUQW9oK9LGEoKZRi-22" value="" style="endArrow=classic;html=1;rounded=0;exitX=0.378;exitY=0.028;exitDx=0;exitDy=0;exitPerimeter=0;entryX=0.374;entryY=0.994;entryDx=0;entryDy=0;entryPerimeter=0;" edge="1" parent="1" source="Ugb7wUQW9oK9LGEoKZRi-10" target="Ugb7wUQW9oK9LGEoKZRi-3">
          <mxGeometry width="50" height="50" relative="1" as="geometry">
            <mxPoint x="322" y="260" as="sourcePoint" />
            <mxPoint x="322" y="314" as="targetPoint" />
          </mxGeometry>
        </mxCell>
        <mxCell id="Ugb7wUQW9oK9LGEoKZRi-23" value="0~8|a|b|f|n|r|t|v|\|&#39;|&quot;|?" style="edgeLabel;html=1;align=center;verticalAlign=middle;resizable=0;points=[];" vertex="1" connectable="0" parent="Ugb7wUQW9oK9LGEoKZRi-22">
          <mxGeometry x="-0.4192" relative="1" as="geometry">
            <mxPoint x="-61" y="-12" as="offset" />
          </mxGeometry>
        </mxCell>
      </root>
    </mxGraphModel>
  </diagram>
</mxfile>
